<svg width="1088" height="1610" viewBox="0 0 1088 1610" fill="none" xmlns="http://www.w3.org/2000/svg">
<g filter="url(#filter0_di_137_7)">
<g filter="url(#filter1_d_137_7)">
<path fill-rule="evenodd" clip-rule="evenodd" d="M1043 522C1043 239.23 810.412 10 523.5 10C236.588 10 4 239.23 4 522V1426C4 1492.27 54.8157 1546 117.5 1546C171.087 1546 216 1506.74 227.908 1453.94C229.025 1454.53 230.198 1455.04 231.408 1455.47C237.029 1527.35 300.065 1584 377 1584C456.645 1584 521.394 1523.28 522.971 1447.82L523.03 1447.83C524.612 1523.29 589.359 1584 669 1584C749.634 1584 815 1521.77 815 1445C815 1444.27 814.994 1443.55 814.982 1442.82C815.671 1442.97 816.395 1443.05 817.138 1443.06C824.97 1501.25 872.292 1546 929.5 1546C992.184 1546 1043 1492.27 1043 1426V522ZM418 413.5C418 473.423 367.856 522 306 522C244.144 522 194 473.423 194 413.5C194 353.577 244.144 305 306 305C367.856 305 418 353.577 418 413.5ZM840 413.5C840 473.423 789.856 522 728 522C666.144 522 616 473.423 616 413.5C616 353.577 666.144 305 728 305C789.856 305 840 353.577 840 413.5Z" fill="url(#paint0_linear_137_7)"/>
</g>
</g>
<defs>
<filter id="filter0_di_137_7" x="4" y="0.4" width="1083.6" height="1609.2" filterUnits="userSpaceOnUse" color-interpolation-filters="sRGB">
<feFlood flood-opacity="0" result="BackgroundImageFix"/>
<feColorMatrix in="SourceAlpha" type="matrix" values="0 0 0 0 0 0 0 0 0 0 0 0 0 0 0 0 0 0 127 0" result="hardAlpha"/>
<feOffset dx="27" dy="8"/>
<feGaussianBlur stdDeviation="8.8"/>
<feComposite in2="hardAlpha" operator="out"/>
<feColorMatrix type="matrix" values="0 0 0 0 0.28275 0 0 0 0 0.121875 0 0 0 0 0.4875 0 0 0 0.51 0"/>
<feBlend mode="normal" in2="BackgroundImageFix" result="effect1_dropShadow_137_7"/>
<feBlend mode="normal" in="SourceGraphic" in2="effect1_dropShadow_137_7" result="shape"/>
<feColorMatrix in="SourceAlpha" type="matrix" values="0 0 0 0 0 0 0 0 0 0 0 0 0 0 0 0 0 0 127 0" result="hardAlpha"/>
<feOffset dx="18" dy="7"/>
<feGaussianBlur stdDeviation="17.9"/>
<feComposite in2="hardAlpha" operator="arithmetic" k2="-1" k3="1"/>
<feColorMatrix type="matrix" values="0 0 0 0 0.983333 0 0 0 0 0.983333 0 0 0 0 0.983333 0 0 0 0.99 0"/>
<feBlend mode="normal" in2="shape" result="effect2_innerShadow_137_7"/>
</filter>
<filter id="filter1_d_137_7" x="0" y="10" width="1047" height="1582" filterUnits="userSpaceOnUse" color-interpolation-filters="sRGB">
<feFlood flood-opacity="0" result="BackgroundImageFix"/>
<feColorMatrix in="SourceAlpha" type="matrix" values="0 0 0 0 0 0 0 0 0 0 0 0 0 0 0 0 0 0 127 0" result="hardAlpha"/>
<feOffset dy="4"/>
<feGaussianBlur stdDeviation="2"/>
<feComposite in2="hardAlpha" operator="out"/>
<feColorMatrix type="matrix" values="0 0 0 0 0 0 0 0 0 0 0 0 0 0 0 0 0 0 0.25 0"/>
<feBlend mode="normal" in2="BackgroundImageFix" result="effect1_dropShadow_137_7"/>
<feBlend mode="normal" in="SourceGraphic" in2="effect1_dropShadow_137_7" result="shape"/>
</filter>
<linearGradient id="paint0_linear_137_7" x1="523.5" y1="10" x2="523.5" y2="1584" gradientUnits="userSpaceOnUse">
<stop stop-color="#23D09C"/>
<stop offset="1" stop-color="#0B4131"/>
</linearGradient>
</defs>
</svg>
