<svg width="499" height="499" viewBox="0 0 499 499" fill="none" xmlns="http://www.w3.org/2000/svg">
<path d="M17.6753 488.856L248.095 22.4204L482.924 486.652L17.6753 488.856Z" stroke="white" stroke-width="19"/>
<path d="M389.5 350C389.5 421.84 326.838 480.5 249 480.5C171.162 480.5 108.5 421.84 108.5 350C108.5 278.16 171.162 219.5 249 219.5C326.838 219.5 389.5 278.16 389.5 350Z" stroke="white" stroke-width="7"/>
<line x1="249.5" y1="221" x2="249.5" y2="484" stroke="white"/>
<line x1="105" y1="351.5" x2="393" y2="351.5" stroke="white"/>
<line x1="159.63" y1="450.663" x2="343.63" y2="248.663" stroke="white"/>
<line x1="150.346" y1="257.639" x2="344.346" y2="443.639" stroke="white"/>
<line x1="123.799" y1="406.542" x2="374.799" y2="296.542" stroke="white"/>
<line x1="198.463" y1="230.811" x2="297.463" y2="473.811" stroke="white"/>
<line x1="116.195" y1="296.54" x2="375.195" y2="406.54" stroke="white"/>
<line x1="204.532" y1="473.823" x2="296.532" y2="230.823" stroke="white"/>
<path d="M249 175V176.24" stroke="white" stroke-width="9" stroke-linecap="round"/>
<path d="M64 457.872C70.9302 454.792 63.6138 432.91 75.782 445.607C79.4182 449.402 91.2845 460.68 91.2845 449.052C91.2845 442.492 91.2707 436.384 89.4931 430.036C88.5231 426.572 87.8788 421.066 91.8357 425.902C94.6215 429.307 116.089 454.398 116.089 444.229" stroke="white" stroke-width="9" stroke-linecap="round"/>
<path d="M375 459.935C379.372 448.277 386.926 438.482 394.568 428.93C396.166 426.932 402.236 420.131 400.493 427.001C398.314 435.588 392.559 441.189 392.363 450.427C392.31 452.901 390.885 459.538 394.843 457.455C396.578 456.542 425.266 435.778 425.848 446.844C425.983 449.393 424.034 460.43 426.124 462.14C428.753 464.291 438.409 462.416 441.971 462.416" stroke="white" stroke-width="9" stroke-linecap="round"/>
<path d="M249 108V110.48" stroke="white" stroke-width="14" stroke-linecap="round"/>
</svg>
