<svg width="80" height="88" viewBox="0 0 785 791" fill="none" xmlns="http://www.w3.org/2000/svg">
                    <rect x="10.9746" y="123.75" width="658.913" height="665.84"
                        transform="rotate(-9.77238 10.9746 123.75)" stroke="#fff" stroke-width="19" />
                    <rect x="74.6887" y="235.083" width="204.756" height="199.255"
                        transform="rotate(-10.0025 74.6887 235.083)" stroke="#fff" stroke-width="15" />
                    <rect x="440.689" y="336.253" width="223.782" height="199.255"
                        transform="rotate(-10.0025 440.689 336.253)" stroke="#fff" stroke-width="15" />
                    <path
                        d="M649.436 208.139C650.089 211.972 648.733 216.74 644.045 222.424C639.372 228.09 631.87 234.03 621.801 239.783C601.708 251.262 572.559 261.332 539.141 267.029C505.723 272.726 474.884 272.883 452.122 268.71C440.716 266.619 431.67 263.5 425.384 259.702C419.077 255.892 416.218 251.843 415.564 248.01C414.911 244.177 416.267 239.409 420.955 233.725C425.628 228.059 433.13 222.119 443.199 216.366C463.292 204.887 492.441 194.817 525.859 189.12C559.277 183.423 590.116 183.266 612.878 187.439C624.284 189.53 633.33 192.649 639.616 196.447C645.923 200.257 648.782 204.306 649.436 208.139Z"
                        stroke="#fff" stroke-width="12" />
                    <path
                        d="M348.929 496.794C349.633 500.923 348.241 505.845 343.785 511.505C339.33 517.164 332.178 523.052 322.591 528.722C303.453 540.041 275.649 549.881 243.735 555.321C211.82 560.762 182.326 560.691 160.519 556.352C149.596 554.179 140.896 550.994 134.818 547.13C128.738 543.266 125.794 539.084 125.09 534.954C124.386 530.824 125.778 525.903 130.234 520.243C134.689 514.583 141.841 508.695 151.428 503.026C170.566 491.707 198.37 481.867 230.284 476.426C262.199 470.985 291.693 471.057 313.5 475.395C324.423 477.568 333.123 480.754 339.201 484.618C345.281 488.482 348.225 492.664 348.929 496.794Z"
                        stroke="#fff" stroke-width="11" />
                    <line x1="413.284" y1="248.557" x2="655.284" y2="209.557" stroke="#fff" stroke-width="9" />
                    <line x1="81.8863" y1="282.596" x2="288.886" y2="246.596" stroke="#fff" stroke-width="13" />
                    <line x1="445.909" y1="382.592" x2="674.909" y2="343.592" stroke="#fff" stroke-width="13" />
                    <line x1="126.076" y1="535.578" x2="349.076" y2="497.578" stroke="#fff" stroke-width="11" />
                    <line x1="465.942" y1="479.419" x2="350.942" y2="499.419" stroke="#fff" stroke-width="11" />
                    <line x1="544.402" y1="266.966" x2="553.402" y2="313.966" stroke="#fff" stroke-width="11" />
                    <line x1="216.425" y1="419.096" x2="225.425" y2="473.096" stroke="#fff" stroke-width="11" />
                    <line x1="289.082" y1="272.577" x2="413.082" y2="251.577" stroke="#fff" stroke-width="11" />
                </svg>